<svg width="212" height="212" viewBox="0 0 212 212" fill="none" xmlns="http://www.w3.org/2000/svg">
<path d="M7.99485 198.607C9.36608 200.964 11.2777 202.885 13.5391 204.18C15.8004 205.475 18.3323 206.098 20.8821 205.987H191.086C193.638 206.1 196.173 205.478 198.438 204.183C200.702 202.888 202.617 200.965 203.991 198.607C205.301 196.228 205.995 193.504 206 190.726C206.005 187.948 205.319 185.221 204.017 182.837L119.041 13.8829C117.681 11.4729 115.781 9.48357 113.522 8.1039C111.263 6.72423 108.719 6 106.132 6C103.545 6 101.001 6.72423 98.7417 8.1039C96.4824 9.48357 94.5826 11.4729 93.2229 13.8829L8.00354 182.837C6.69275 185.217 6 187.943 6 190.722C6 193.501 6.68405 196.227 7.99485 198.607ZM15.4646 187.722L100.858 18.4729C101.44 17.5413 102.225 16.7841 103.142 16.2701C104.06 15.7561 105.08 15.5018 106.11 15.5303C107.201 15.513 108.277 15.8035 109.235 16.374C110.193 16.9444 111 17.7755 111.58 18.7871L196.373 187.417C196.933 188.348 197.244 189.432 197.271 190.546C197.297 191.661 197.037 192.761 196.521 193.722C195.893 194.637 195.066 195.368 194.116 195.846C193.165 196.325 192.121 196.537 191.077 196.464H20.8908C19.8525 196.537 18.8141 196.326 17.8685 195.85C16.923 195.375 16.1 194.65 15.4733 193.741C14.9654 192.836 14.6958 191.795 14.6943 190.733C14.6927 189.671 14.9593 188.629 15.4646 187.722ZM110.389 139.327H101.693V72.6673H110.389V139.327ZM97.3447 163.134C97.3447 161.251 97.8547 159.41 98.8102 157.844C99.7658 156.278 101.124 155.057 102.713 154.336C104.302 153.616 106.05 153.427 107.737 153.794C109.424 154.162 110.973 155.069 112.189 156.401C113.406 157.732 114.234 159.429 114.569 161.276C114.905 163.124 114.733 165.038 114.075 166.778C113.416 168.519 112.302 170.006 110.872 171.052C109.442 172.099 107.76 172.657 106.041 172.657C103.736 172.652 101.527 171.647 99.8968 169.862C98.267 168.078 97.3493 165.658 97.3447 163.134Z" fill="black" stroke="black" stroke-width="12"/>
</svg>
