<svg width="779" height="710" viewBox="0 0 779 710" fill="none" xmlns="http://www.w3.org/2000/svg">
<path d="M22.4707 669.863C27.606 677.876 34.7651 684.41 43.2337 688.813C51.7024 693.216 61.1844 695.334 70.7335 694.956H708.147C717.706 695.339 727.199 693.224 735.679 688.821C744.159 684.418 751.329 677.881 756.475 669.863C761.382 661.775 763.983 652.513 764 643.068C764.017 633.623 761.45 624.351 756.573 616.246L438.338 41.8017C433.246 33.6078 426.131 26.8441 417.67 22.1533C409.209 17.4624 399.682 15 389.994 15C380.306 15 370.779 17.4624 362.318 22.1533C353.857 26.8441 346.742 33.6078 341.65 41.8017L22.5033 616.246C17.5943 624.336 15 633.606 15 643.054C15 652.503 17.5618 661.773 22.4707 669.863ZM50.4449 632.856L370.243 57.4077C372.421 54.2406 375.362 51.6659 378.798 49.9184C382.234 48.1709 386.055 47.3061 389.913 47.403C393.996 47.3441 398.026 48.3319 401.614 50.2714C405.202 52.2109 408.226 55.0366 410.397 58.4762L727.947 631.819C730.046 634.983 731.21 638.669 731.308 642.458C731.406 646.246 730.433 649.987 728.501 653.253C726.148 656.367 723.052 658.85 719.493 660.478C715.934 662.106 712.024 662.827 708.115 662.578H70.766C66.8777 662.824 62.9887 662.107 59.4477 660.491C55.9068 658.875 52.8246 656.41 50.4774 653.318C48.5754 650.242 47.5658 646.703 47.56 643.091C47.5543 639.48 48.5527 635.938 50.4449 632.856ZM405.935 468.312H373.369V241.669H405.935V468.312ZM357.086 549.256C357.086 542.853 358.996 536.593 362.574 531.268C366.153 525.944 371.239 521.794 377.19 519.343C383.14 516.893 389.688 516.252 396.005 517.501C402.322 518.75 408.125 521.834 412.68 526.362C417.234 530.89 420.336 536.659 421.592 542.94C422.849 549.22 422.204 555.731 419.739 561.647C417.274 567.563 413.1 572.62 407.745 576.177C402.389 579.735 396.093 581.634 389.652 581.634C381.02 581.617 372.747 578.2 366.643 572.132C360.54 566.064 357.103 557.838 357.086 549.256Z" fill="black" stroke="black" stroke-width="30"/>
</svg>
