<svg width="154" height="281" viewBox="0 0 154 281" fill="none" xmlns="http://www.w3.org/2000/svg">
<path d="M3 35H75V196H3V35Z" fill="#D9D9D9"/>
<path fill-rule="evenodd" clip-rule="evenodd" d="M0 32H78V199H0V32ZM3 35V196H75V35H3Z" fill="black"/>
<path d="M24 186C24 174.954 30.7157 166 39 166C47.2843 166 54 174.954 54 186V258C54 269.046 47.2843 278 39 278C30.7157 278 24 269.046 24 258V186Z" fill="#F5F5F5"/>
<path fill-rule="evenodd" clip-rule="evenodd" d="M57 186V258C57 264.109 55.1466 269.755 52.0066 273.942C48.8659 278.13 44.2981 281 39 281C33.7019 281 29.1341 278.13 25.9934 273.942C22.8534 269.755 21 264.109 21 258V186C21 179.891 22.8534 174.245 25.9934 170.058C29.1341 165.87 33.7019 163 39 163C44.2981 163 48.8659 165.87 52.0066 170.058C55.1466 174.245 57 179.891 57 186ZM39 166C30.7157 166 24 174.954 24 186V258C24 269.046 30.7157 278 39 278C47.2843 278 54 269.046 54 258V186C54 174.954 47.2843 166 39 166Z" fill="black"/>
<path d="M3 28C3 14.1929 14.1929 3 28 3H81C94.8071 3 106 14.1929 106 28V43C106 56.8071 94.8071 68 81 68H28C14.1929 68 3 56.8071 3 43V28Z" fill="#F5F5F5"/>
<path fill-rule="evenodd" clip-rule="evenodd" d="M28 0H81C96.464 0 109 12.536 109 28V43C109 58.464 96.464 71 81 71H28C12.536 71 0 58.464 0 43V28C0 12.536 12.536 0 28 0ZM28 3C14.1929 3 3 14.1929 3 28V43C3 56.8071 14.1929 68 28 68H81C94.8071 68 106 56.8071 106 43V28C106 14.1929 94.8071 3 81 3H28Z" fill="black"/>
<path d="M30 3H106V48H30V3Z" fill="#D9D9D9"/>
<path fill-rule="evenodd" clip-rule="evenodd" d="M27 0H109V51H27V0ZM30 3V48H106V3H30Z" fill="black"/>
<path d="M3 86H75V196H3V86Z" fill="#F5F5F5"/>
<path d="M26 3H106V48H26V3Z" fill="#F5F5F5"/>
<path d="M3 35H36V111H3V35Z" fill="#F5F5F5"/>
<rect x="14.5" y="42.5" width="138" height="42" fill="#F5F5F5" stroke="black" stroke-width="3"/>
</svg>
