<?xml version="1.0" encoding="UTF-8" standalone="no"?>
<!-- Created with Inkscape (http://www.inkscape.org/) -->

<svg
   width="21.320856mm"
   height="23.491789mm"
   viewBox="0 0 21.320856 23.491789"
   version="1.1"
   id="svg1"
   xml:space="preserve"
   inkscape:export-filename="Test Image.svg"
   inkscape:export-xdpi="96"
   inkscape:export-ydpi="96"
   inkscape:version="1.3.2 (091e20e, 2023-11-25, custom)"
   sodipodi:docname="Galaxy Icons.svg"
   xmlns:inkscape="http://www.inkscape.org/namespaces/inkscape"
   xmlns:sodipodi="http://sodipodi.sourceforge.net/DTD/sodipodi-0.dtd"
   xmlns="http://www.w3.org/2000/svg"
   xmlns:svg="http://www.w3.org/2000/svg"
   xmlns:rdf="http://www.w3.org/1999/02/22-rdf-syntax-ns#"
   xmlns:cc="http://creativecommons.org/ns#"
   xmlns:dc="http://purl.org/dc/elements/1.1/"><defs
     id="defs1" /><sodipodi:namedview
     id="base"
     pagecolor="#ffffff"
     bordercolor="#000000"
     borderopacity="0.3"
     inkscape:pageopacity="0.0"
     inkscape:pageshadow="2"
     inkscape:zoom="0.35"
     inkscape:cx="700"
     inkscape:cy="-587.14286"
     inkscape:document-units="mm"
     inkscape:showpageshadow="0"
     inkscape:pagecheckerboard="0"
     inkscape:deskcolor="#505050"
     inkscape:export-bgcolor="#00000000"
     inkscape:window-width="1920"
     inkscape:window-height="1017"
     inkscape:window-x="1912"
     inkscape:window-y="-8"
     inkscape:window-maximized="1"
     inkscape:current-layer="layer7" /><metadata
     id="metadata1"><rdf:RDF><cc:Work
         rdf:about=""><dc:format>image/svg+xml</dc:format><dc:type
           rdf:resource="http://purl.org/dc/dcmitype/StillImage" /></cc:Work></rdf:RDF></metadata><g
     inkscape:groupmode="layer"
     id="layer8"
     inkscape:label="Image 7"
     style="display:inline"
     transform="translate(-246.95667,15.140002)"><path
       id="path8"
       style="display:inline;fill:#ffffff;stroke:#ffffff;stroke-width:0.0286194;paint-order:normal"
       d="m 265.76982,-15.125692 a 2.4931235,2.4972994 0 0 0 -2.49287,2.497522 2.4931235,2.4972994 0 0 0 0.94206,1.947685 l -1.91099,3.3098755 0.50126,0.289388 1.89963,-3.2902385 a 2.4931235,2.4972994 0 0 0 1.06143,0.240295 2.4931235,2.4972994 0 0 0 2.49287,-2.497522 2.4931235,2.4972994 0 0 0 -2.49339,-2.497005 z m -5.53402,5.203817 a 6.5200896,6.3901596 0 0 0 -6.42959,5.3748657 h 1.96526 a 4.6103997,4.5268779 0 0 1 4.44882,-3.4044433 4.6103997,4.5268779 0 0 1 1.44539,0.2387451 l 1.00097,-1.7337443 A 6.5200896,6.3901596 0 0 0 260.2358,-9.921875 Z m 4.26588,1.5570109 -1.02112,1.7683675 a 4.6103997,4.5268779 0 0 1 1.34255,3.0644125 l 1.93373,-5.168e-4 a 6.5200896,6.3901596 0 0 0 -2.25516,-4.8322632 z m -4.25555,2.3755656 a 2.4931235,2.4972994 0 0 0 -2.49235,2.497522 2.4931235,2.4972994 0 0 0 2.49287,2.49700518 2.4931235,2.4972994 0 0 0 2.49338,-2.49700518 h -2.49338 l 2.49338,-5.168e-4 a 2.4931235,2.4972994 0 0 0 -2.4939,-2.4970052 z m -10.78229,0.015503 a 2.4931235,2.4972994 0 0 0 -2.49287,2.497522 2.4931235,2.4972994 0 0 0 2.49287,2.49752197 2.4931235,2.4972994 0 0 0 2.4722,-2.20761717 h 3.84318 v -0.5787761 h -3.84318 a 2.4931235,2.4972994 0 0 0 -2.4722,-2.2086507 z m 15.35927,2.4422282 a 4.6103997,4.5268779 0 0 1 0.008,0.1069702 4.6103997,4.5268779 0 0 1 -1.418,3.24321292 l 0.92501,1.60248618 a 6.5200896,6.3901596 0 0 0 2.41897,-4.9526693 z m -12.92582,0.054777 v 5.168e-4 h -2.43345 z m 1.93114,1.0598837 a 6.5200896,6.3901596 0 0 0 6.4084,5.2751302 6.5200896,6.3901596 0 0 0 2.23707,-0.4051433 L 261.57111,0.88883464 A 4.6103997,4.5268779 0 0 1 260.22029,1.1022583 4.6103997,4.5268779 0 0 1 255.74046,-2.41639 Z m 8.87802,2.67632239 -0.50127,0.28938802 1.93684,3.35483399 a 2.4931235,2.4972994 0 0 0 -0.92656,1.9368327 2.4931235,2.4972994 0 0 0 2.49339,2.4970052 2.4931235,2.4972994 0 0 0 2.49287,-2.497522 2.4931235,2.4972994 0 0 0 -2.49339,-2.4970052 2.4931235,2.4972994 0 0 0 -1.07797,0.2490804 z"
       inkscape:export-filename="..\Finalized SVG's\Scientific Logo.svg"
       inkscape:export-xdpi="138.19333"
       inkscape:export-ydpi="138.19333" /></g></svg>
