<svg width="25" height="25" viewBox="0 0 25 25" fill="none" xmlns="http://www.w3.org/2000/svg">
<path d="M12.4805 8.81369e-09C10.8415 -6.15853e-05 9.21856 0.322713 7.70433 0.949894C6.1901 1.57707 4.81424 2.49638 3.65531 3.65531C2.49638 4.81424 1.57707 6.1901 0.949894 7.70433C0.322713 9.21856 -6.15853e-05 10.8415 8.81368e-09 12.4805C0.00782543 13.2106 0.0797158 13.9387 0.214844 14.6562H4H4.25391H20.9688H21.5996H24.7461C24.8812 13.9387 24.9531 13.2106 24.9609 12.4805C24.961 10.8415 24.6382 9.21856 24.011 7.70433C23.3839 6.1901 22.4646 4.81424 21.3056 3.65531C20.1467 2.49638 18.7708 1.57707 17.2566 0.949894C15.7424 0.322713 14.1194 -6.15853e-05 12.4805 8.81369e-09ZM12.6113 4.01172C14.8949 4.01171 17.085 4.92303 18.6999 6.54525C20.3148 8.16747 21.2222 10.3677 21.2227 12.6621C21.217 12.7749 21.2092 12.8875 21.1992 13H4.02344C4.01343 12.8875 4.00562 12.7749 4 12.6621C4.00042 10.3677 4.90787 8.16747 6.52276 6.54525C8.13765 4.92303 10.3277 4.01171 12.6113 4.01172ZM0.382812 15.4277C1.04213 18.1411 2.59236 20.555 4.78555 22.2832C6.97873 24.0115 9.68816 24.9543 12.4805 24.9609C15.2728 24.9543 17.9822 24.0115 20.1754 22.2832C22.3686 20.555 23.9188 18.1411 24.5781 15.4277H20.752C20.177 17.1403 19.0827 18.629 17.6227 19.6848C16.1627 20.7406 14.4102 21.3105 12.6113 21.3145C10.8125 21.3105 9.06 20.7406 7.59997 19.6848C6.13993 18.629 5.04564 17.1403 4.4707 15.4277H0.382812Z" fill="white"/>
</svg>
