<?xml version="1.0" encoding="UTF-8" standalone="no"?>
<!-- Created with Inkscape (http://www.inkscape.org/) -->

<svg
   width="21.557905mm"
   height="19.128098mm"
   viewBox="0 0 21.557905 19.128098"
   version="1.1"
   id="svg1"
   xml:space="preserve"
   inkscape:export-filename="Test Image.svg"
   inkscape:export-xdpi="96"
   inkscape:export-ydpi="96"
   inkscape:version="1.3.2 (091e20e, 2023-11-25, custom)"
   sodipodi:docname="Galaxy Icons.svg"
   xmlns:inkscape="http://www.inkscape.org/namespaces/inkscape"
   xmlns:sodipodi="http://sodipodi.sourceforge.net/DTD/sodipodi-0.dtd"
   xmlns="http://www.w3.org/2000/svg"
   xmlns:svg="http://www.w3.org/2000/svg"
   xmlns:rdf="http://www.w3.org/1999/02/22-rdf-syntax-ns#"
   xmlns:cc="http://creativecommons.org/ns#"
   xmlns:dc="http://purl.org/dc/elements/1.1/"><defs
     id="defs1" /><sodipodi:namedview
     id="base"
     pagecolor="#ffffff"
     bordercolor="#000000"
     borderopacity="0.3"
     inkscape:pageopacity="0.0"
     inkscape:pageshadow="2"
     inkscape:zoom="0.35"
     inkscape:cx="700"
     inkscape:cy="-587.14286"
     inkscape:document-units="mm"
     inkscape:showpageshadow="0"
     inkscape:pagecheckerboard="0"
     inkscape:deskcolor="#505050"
     inkscape:export-bgcolor="#00000000"
     inkscape:window-width="1920"
     inkscape:window-height="1017"
     inkscape:window-x="1912"
     inkscape:window-y="-8"
     inkscape:window-maximized="1"
     inkscape:current-layer="layer7"
     showguides="false"
     inkscape:lockguides="false" /><metadata
     id="metadata1"><rdf:RDF><cc:Work
         rdf:about=""><dc:format>image/svg+xml</dc:format><dc:type
           rdf:resource="http://purl.org/dc/dcmitype/StillImage" /></cc:Work></rdf:RDF></metadata><g
     inkscape:groupmode="layer"
     id="layer15"
     inkscape:label="Image 17"
     transform="translate(-251.43967,-295.60149)"><path
       id="path12"
       style="fill:#ffffff;stroke:#ffffff;stroke-width:0.0286194;paint-order:normal"
       d="m 261.28018,295.62278 -3.22668,1.31413 -1.02009,7.15461 1.07797,0.64182 0.006,8.8346 a 10.864167,1.4968507 0 0 1 3.1626,-0.1018 z m 1.8836,5.2e-4 v 17.84335 a 10.864167,1.4968507 0 0 1 3.1626,0.10181 l 0.006,-8.83461 1.07797,-0.64182 -1.02009,-7.1546 z m 5.83944,7.89099 -0.005,10.26914 a 10.864167,1.4968507 0 0 1 3.98115,0.91002 l -1.09916,-10.03143 z m -13.56972,0.005 -2.87682,1.14773 -1.09916,10.03143 a 10.864167,1.4968507 0 0 1 3.98115,-0.91002 z" /></g></svg>
